# xmcd
#
# Track frame offsets: 
#        150
#        12625
#        32565
#        52597
#        67895
#        92867
#        117337
#        136462
#        155527
#        178880
#        194927
#        216460
#        239010
#        257257
#        278685
#        297732
#        305330
#
# Disc length: 4371 seconds
#
# Revision: 1
# Processed by: cddbd v1.5.1PL0 Copyright (c) Steve Scherf et al.
# Submitted via: ExactAudioCopy v0.95a5
#
DISCID=06111111
DTITLE=Mary J. Blige - No More Drama
DYEAR=2001
DGENRE=R&B/Soul
TTITLE0=Love
TTITLE1=Family Affair
TTITLE2=Steal Away
TTITLE3=Crazy Games
TTITLE4=PMS
TTITLE5=No More Drama
TTITLE6=Keep It Moving
TTITLE7=Destiny
TTITLE8=Where I've Been (Featuring Eve)
TTITLE9=Beautiful Day
TTITLE10=Dance For Me
TTITLE11=Flying Away
TTITLE12=Never Been
TTITLE13=2U
TTITLE14=In The Meantime
TTITLE15=Forever No More - Poem
TTITLE16=Testimony
EXTD=
EXTT0=
EXTT1=
EXTT2=
EXTT3=
EXTT4=
EXTT5=
EXTT6=
EXTT7=
EXTT8=
EXTT9=
EXTT10=
EXTT11=
EXTT12=
EXTT13=
EXTT14=
EXTT15=
EXTT16=
PLAYORDER=
